<svg xmlns="http://www.w3.org/2000/svg" viewBox="0 0 20.98 4.62"><defs><style>.cls-1{fill:#fff9b1;}</style></defs><g id="Layer_2" data-name="Layer 2"><g id="Layer_1-2" data-name="Layer 1"><path class="cls-1" d="M3.13,1.85c-.07-.1-.12-.21-.2-.31L2.81,1.4H.07a4.13,4.13,0,0,0,.17.45Z"/><path class="cls-1" d="M3.83,3.48H1.3a4.56,4.56,0,0,0,.44.44H3.86A1.71,1.71,0,0,0,3.83,3.48Z"/><path class="cls-1" d="M0,1.16H2.58A4.7,4.7,0,0,0,2.14.71H0A1.4,1.4,0,0,0,0,1.16Z"/><path class="cls-1" d="M3.54,2.54a4.91,4.91,0,0,0-.25-.44h-3c.07.14.17.29.26.44Z"/><path class="cls-1" d="M2.09,4.17c.61.41,1.18.57,1.52.31a.78.78,0,0,0,.17-.31Z"/><path class="cls-1" d="M1.07,3.23H3.8c0-.14-.11-.29-.17-.44H.75c.06.09.11.19.18.29A1.92,1.92,0,0,1,1.07,3.23Z"/><path class="cls-1" d="M1.82.48C1.2.05.6-.13.26.13A.7.7,0,0,0,.07.48Z"/><path class="cls-1" d="M20.92,3.3a4.06,4.06,0,0,0-.33-.86A4.53,4.53,0,0,0,20,1.55a4,4,0,0,0-.74-.79,3.1,3.1,0,0,0-.74-.53A2,2,0,0,0,17.87,0H.68V.47H17.17V.7H.68v.46H17.11a.47.47,0,0,0,0,.16s0,.05,0,.08H.68v.44H17.31c0,.07.07.16.1.25H.68v.23H3.24v.23H17.66l.16.24H3.24v.44H18.17a1.18,1.18,0,0,0,.19.25H3.24v.45H18.83l.3.23H3.24v.46h17a.25.25,0,0,0,.12,0,.49.49,0,0,0,.33-.12A.72.72,0,0,0,21,4,1.91,1.91,0,0,0,20.92,3.3Zm-.49.75c-.4.31-1.34-.23-2.08-1.2s-1-2-.63-2.32,1.34.23,2.08,1.2S20.83,3.74,20.43,4.05Z"/></g></g></svg>